<svg width="124" height="103" viewBox="0 0 124 103" fill="none" xmlns="http://www.w3.org/2000/svg">
<path d="M111.226 69.1045C112.366 76.3908 116.851 82.2786 123.514 85.2344C115.808 88.1902 109.247 94.077 105.537 101.363L104.975 102.469L104.802 101.363C103.662 94.0772 99.1764 88.1902 92.5137 85.2344C100.219 82.2786 106.78 76.3907 110.489 69.1045L111.053 68L111.226 69.1045ZM105.215 14.5098C105.617 14.6147 106.013 14.7263 106.402 14.8438C106.598 14.9026 106.791 14.9624 106.983 15.0244C107.367 15.1482 107.744 15.2786 108.115 15.415C108.301 15.4832 108.484 15.5537 108.666 15.625C109.03 15.7677 109.388 15.916 109.739 16.0713C109.915 16.149 110.089 16.2287 110.261 16.3096C111.122 16.7138 111.94 17.1571 112.713 17.6406C112.868 17.7374 113.021 17.8356 113.172 17.9355C113.474 18.1353 113.768 18.3422 114.055 18.5547C114.198 18.6609 114.34 18.7685 114.479 18.8779C115.318 19.5346 116.088 20.2487 116.785 21.0205C117.018 21.2778 117.242 21.5414 117.458 21.8115C117.998 22.4866 118.486 23.2016 118.919 23.957L119.128 24.333C119.423 24.88 119.686 25.4414 119.918 26.0146C120.137 26.5547 120.327 27.1061 120.491 27.668C120.53 27.8002 120.567 27.933 120.603 28.0664C120.769 28.6922 120.905 29.3302 121.006 29.9805C121.015 30.0402 121.022 30.1002 121.031 30.1602C122.965 43.3993 111.547 61.4345 92.0068 76.4521C91.3052 76.9914 90.5953 77.5295 89.873 78.0605H89.8721C85.939 80.9522 81.7026 83.7179 77.2021 86.2988C76.2038 86.8713 75.2042 87.4279 74.2041 87.9688C73.5233 88.3369 72.8411 88.6954 72.1602 89.0488C46.9863 102.115 21.8216 105.125 8.86621 97.3398C8.54312 97.1457 8.22763 96.9449 7.91992 96.7373C7.62111 96.5357 7.32986 96.3276 7.0459 96.1133C6.73912 95.8818 6.44039 95.6438 6.15137 95.3975C5.87732 95.1639 5.6122 94.9227 5.35449 94.6758C5.20277 94.5304 5.05318 94.3834 4.90723 94.2334C4.84649 94.171 4.78727 94.1072 4.72754 94.0439C4.58845 93.8967 4.45096 93.7483 4.31738 93.5967C4.11887 93.3713 3.92637 93.1412 3.74023 92.9062C3.30795 92.3605 2.90938 91.7883 2.5459 91.1904L2.32715 90.8203C-3.36009 80.9033 1.69066 66.3791 14.0479 52.3721C13.0356 53.8589 12.1311 55.3381 11.3379 56.7998C11.0203 57.3851 10.7206 57.9676 10.4395 58.5469C10.0178 59.4158 9.63742 60.2774 9.2998 61.1299C9.18725 61.4141 9.07959 61.6974 8.97656 61.9795C8.77056 62.5436 8.58335 63.1033 8.41602 63.6582C8.33231 63.9358 8.25358 64.2122 8.17969 64.4873C6.85 69.4376 7.11691 73.9725 9.25293 77.6973C9.35429 77.874 9.46062 78.0474 9.56934 78.2188C9.57616 78.2295 9.58299 78.2402 9.58984 78.251C9.69708 78.4189 9.80766 78.5843 9.92188 78.7471C9.93085 78.7599 9.9402 78.7724 9.94922 78.7852C10.0579 78.9388 10.1694 79.0903 10.2842 79.2393C10.3002 79.26 10.3159 79.2811 10.332 79.3018C10.8384 79.9512 11.4033 80.5559 12.0234 81.1162C12.0347 81.1264 12.0463 81.1363 12.0576 81.1465C12.5169 81.5589 13.0065 81.9465 13.5244 82.3105C13.5454 82.3253 13.5658 82.3408 13.5869 82.3555C13.75 82.469 13.9163 82.5797 14.085 82.6885C14.1016 82.6992 14.1181 82.71 14.1348 82.7207C14.6804 83.0699 15.2548 83.3942 15.8564 83.6943C15.8714 83.7018 15.8864 83.7094 15.9014 83.7168C16.0908 83.8107 16.2828 83.9022 16.4775 83.9912C16.4979 84.0005 16.5186 84.0093 16.5391 84.0186C16.7379 84.1087 16.9392 84.197 17.1436 84.2822C17.3673 84.3755 17.5941 84.4664 17.8242 84.5537C17.8859 84.5771 17.9486 84.5981 18.0107 84.6211C18.1848 84.6854 18.3605 84.7486 18.5381 84.8096C18.6628 84.8524 18.7886 84.8934 18.915 84.9346C19.0458 84.9771 19.177 85.0198 19.3096 85.0605C19.4382 85.1001 19.5679 85.1379 19.6982 85.1758C19.8135 85.2093 19.9293 85.2422 20.0459 85.2744C20.201 85.3173 20.3572 85.3589 20.5146 85.3994C20.6158 85.4255 20.7173 85.4515 20.8193 85.4766C20.9864 85.5177 21.1547 85.5572 21.3242 85.5957C21.4079 85.6147 21.4919 85.633 21.5762 85.6514C21.7649 85.6926 21.9548 85.7334 22.1465 85.7715C22.2162 85.7853 22.2863 85.7981 22.3564 85.8115C22.5536 85.8493 22.7519 85.8873 22.9521 85.9219C23.0787 85.9437 23.2062 85.9628 23.334 85.9834C23.9653 86.085 24.6109 86.1712 25.2705 86.2412C25.3355 86.2481 25.4005 86.2561 25.4658 86.2627C25.6554 86.2818 25.8462 86.2989 26.0381 86.3154C26.1549 86.3255 26.272 86.3356 26.3896 86.3447C26.5896 86.3602 26.7909 86.373 26.9932 86.3857C27.0721 86.3907 27.1512 86.3958 27.2305 86.4004C27.4534 86.4132 27.6776 86.4251 27.9033 86.4346C27.9907 86.4382 28.0783 86.4412 28.166 86.4443C28.3903 86.4525 28.6159 86.46 28.8428 86.4648C28.9061 86.4662 28.9696 86.4667 29.0332 86.4678C29.2846 86.4722 29.5375 86.4752 29.792 86.4756C29.82 86.4756 29.848 86.4756 29.876 86.4756C30.6943 86.4756 31.5283 86.4548 32.377 86.4141C32.4598 86.4101 32.5428 86.4067 32.626 86.4023C32.8658 86.3898 33.1066 86.3742 33.3486 86.3584C33.4273 86.3533 33.5061 86.3492 33.585 86.3438C33.8438 86.3258 34.1039 86.3048 34.3652 86.2832C34.4403 86.277 34.5155 86.2712 34.5908 86.2646C34.8555 86.2418 35.1215 86.217 35.3887 86.1904C35.4482 86.1845 35.5077 86.178 35.5674 86.1719C35.8286 86.1451 36.091 86.1172 36.3545 86.0869C36.4734 86.0732 36.5925 86.0583 36.7119 86.0439C36.9357 86.017 37.1604 85.9904 37.3857 85.9609C37.4869 85.9477 37.588 85.9327 37.6895 85.9189C38.8997 85.755 40.132 85.5554 41.3838 85.3193C41.453 85.3063 41.5224 85.2936 41.5918 85.2803C41.9005 85.2212 42.2105 85.1601 42.5215 85.0967C42.5524 85.0904 42.5833 85.0835 42.6143 85.0771C42.9085 85.0168 43.2038 84.9549 43.5 84.8906C43.5927 84.8705 43.6854 84.8496 43.7783 84.8291C46.515 84.2252 49.3327 83.4563 52.2051 82.5244C52.2743 82.5019 52.3438 82.4797 52.4131 82.457C52.7373 82.3511 53.0621 82.2429 53.3877 82.1328C53.419 82.1222 53.4501 82.1112 53.4814 82.1006C60.032 79.8777 66.8435 76.8212 73.5986 72.9473C78.637 70.0578 83.2983 66.9109 87.5117 63.6191C87.5573 63.5836 87.603 63.5483 87.6484 63.5127C94.1637 58.4059 99.5964 52.9481 103.672 47.54C103.714 47.4846 103.755 47.4294 103.797 47.374C103.914 47.2171 104.03 47.0601 104.146 46.9033C104.205 46.8218 104.264 46.7397 104.323 46.6582C105.185 45.4724 105.982 44.2909 106.709 43.1162C106.744 43.06 106.778 43.0035 106.812 42.9473C106.92 42.7727 107.025 42.5981 107.129 42.4238C107.19 42.3214 107.251 42.2195 107.312 42.1172C107.456 41.872 107.596 41.6272 107.734 41.3828C107.789 41.2867 107.842 41.1907 107.896 41.0947C107.972 40.9562 108.048 40.8179 108.123 40.6797C108.201 40.5362 108.278 40.3932 108.354 40.25C108.409 40.1447 108.464 40.0396 108.519 39.9346C108.633 39.7135 108.744 39.4927 108.854 39.2725C108.917 39.1444 108.979 39.0164 109.041 38.8887C109.102 38.7622 109.162 38.6359 109.222 38.5098C109.281 38.3826 109.34 38.2557 109.398 38.1289C109.504 37.8978 109.607 37.6675 109.707 37.4375C109.735 37.3727 109.762 37.3078 109.79 37.2432C109.866 37.0641 109.941 36.8854 110.014 36.707C110.058 36.5971 110.103 36.4876 110.146 36.3779C110.232 36.1611 110.316 35.9451 110.396 35.7295C110.41 35.6931 110.423 35.6565 110.437 35.6201C110.521 35.3919 110.601 35.1642 110.679 34.9375C110.709 34.8492 110.738 34.7609 110.768 34.6729C110.821 34.5139 110.872 34.3554 110.922 34.1973C110.956 34.0892 110.991 33.9818 111.023 33.874C111.09 33.6552 111.152 33.437 111.212 33.2197C111.232 33.1477 111.251 33.0758 111.271 33.0039C111.318 32.8283 111.361 32.653 111.404 32.4785C111.426 32.391 111.448 32.304 111.469 32.2168C111.521 31.9958 111.571 31.7759 111.616 31.5566C111.636 31.4628 111.653 31.3689 111.671 31.2754C111.701 31.1202 111.731 30.9657 111.758 30.8115C111.774 30.7163 111.789 30.6212 111.805 30.5264C111.831 30.3633 111.856 30.201 111.879 30.0391C111.913 29.7981 111.944 29.5587 111.969 29.3203C111.972 29.2917 111.974 29.263 111.977 29.2344C112.011 28.8993 112.037 28.567 112.054 28.2373C112.056 28.1946 112.058 28.152 112.06 28.1094C112.065 27.9784 112.07 27.8479 112.073 27.7178C112.074 27.6907 112.075 27.6637 112.075 27.6367C112.082 27.3086 112.079 26.9834 112.068 26.6611C112.066 26.606 112.064 26.551 112.062 26.4961C112.049 26.1985 112.028 25.9036 112 25.6113C111.995 25.5568 111.988 25.5025 111.982 25.4482C111.934 24.9951 111.868 24.5487 111.782 24.1094C111.771 24.0526 111.76 23.996 111.748 23.9395C111.728 23.8446 111.707 23.7504 111.686 23.6562C111.672 23.5954 111.659 23.5342 111.645 23.4736C111.612 23.3381 111.577 23.2034 111.541 23.0693C111.525 23.0111 111.508 22.9534 111.491 22.8955C111.464 22.7987 111.435 22.7024 111.405 22.6064C111.398 22.584 111.392 22.5615 111.385 22.5391C111.293 22.2479 111.193 21.9605 111.083 21.6768C111.064 21.6278 111.045 21.579 111.025 21.5303C110.982 21.4216 110.937 21.3136 110.891 21.2061C110.881 21.1841 110.873 21.1616 110.863 21.1396C110.804 21.0038 110.741 20.8693 110.678 20.7354C110.66 20.6981 110.642 20.6611 110.624 20.624C110.571 20.5153 110.517 20.4072 110.461 20.2998C110.437 20.2541 110.413 20.2086 110.389 20.1631C110.325 20.0447 110.261 19.9264 110.194 19.8096C110.113 19.6685 110.03 19.5292 109.944 19.3916C108.661 17.3276 106.852 15.6521 104.607 14.3574L105.215 14.5098ZM27.7783 35.0605C28.1816 35.0374 28.4857 35.6464 28.626 35.6465H41.7773V35.6582L40.6084 39.1348L53.8828 39.1406L54.7598 35.6582H68.4961L67.9111 39.1406H98.4746L96.7207 49.5869H66.1572L65.5732 52.4834H94.0166C90.2718 56.2608 85.8598 59.9919 80.8818 63.5127H64.4043L63.8193 66.4268H76.5557C74.9483 67.4566 73.2911 68.4631 71.5869 69.4404C65.2472 73.0761 58.8944 75.9497 52.8096 78.0605H15.4746L17.2344 66.4268H49.207L49.792 63.5127H17.8125L19.5605 52.4834H51.5508L52.1357 49.5752H20.1504C20.184 49.5231 26.1871 40.1998 27.7783 35.0605ZM28.9746 0C33.0032 1.22492 41.4797 1.17135 41.5479 1.1709L38.1143 19.3867H54.8408C54.6013 18.0309 52.7238 13.0476 52.7158 13.0264C52.7158 13.0264 45.718 12.9561 41.041 12.9561L47.2812 1.20801L65.8809 1.31348L72.2021 19.416L88.2061 19.3926L89.6699 13.0264L72.6943 12.9443L68.3037 1.23145L95.8584 1.21387C100.86 1.21085 104.638 5.74659 103.73 10.665L100.992 25.5107C100.292 29.3054 96.9837 32.0605 93.125 32.0605H23.4746L28.9746 0Z" fill="black"/>
</svg>
